<?xml version="1.0" encoding="UTF-8"?>
<svg id="Layer_2" data-name="Layer 2" xmlns="http://www.w3.org/2000/svg" viewBox="0 0 526.96 150">
  <g id="Layer_1-2" data-name="Layer 1">
    <g>
      <g>
        <path d="M150,91.25c-21.11,0-39.64,11.19-50,27.95-10.36-16.76-28.89-27.95-50-27.95H4c-2.21,0-4,1.79-4,4v9.5c0,2.21,1.79,4,4,4H50c21.51,0,39.23,16.55,41.09,37.59,.18,2.07,1.89,3.66,3.97,3.66h9.89c2.07,0,3.79-1.59,3.97-3.66,1.86-21.04,19.58-37.59,41.09-37.59h46c2.21,0,4-1.79,4-4v-9.5c0-2.21-1.79-4-4-4h-46Z"/>
        <rect x="91.25" width="17.5" height="68.75" rx="4" ry="4"/>
        <rect x="44.85" y="19.22" width="17.5" height="68.75" rx="4" ry="4" transform="translate(-22.2 53.6) rotate(-45)"/>
        <rect x="112.03" y="44.85" width="68.75" height="17.5" rx="4" ry="4" transform="translate(4.98 119.22) rotate(-45)"/>
      </g>
      <g>
        <path d="M240,45.41h13.3l12,34.52c1.22,3.48,2.29,6.65,3.22,9.52,.93,2.87,1.71,5.29,2.35,7.26,.64-1.97,1.42-4.39,2.35-7.26,.93-2.87,1.97-6.04,3.13-9.52l11.91-34.52h12.7l-22.44,60h-16.09l-22.44-60Z"/>
        <path d="M350.87,95.07v10.35h-43.83V45.41h43.3v10.35h-30.96v13.91h28v10.09h-28v15.31h31.48Z"/>
        <path d="M399.91,105.41l-26.87-28.87v28.87h-12.35V45.41h12.35v27.48l26.96-27.48h15.13l-28.87,28.7,29.74,31.3h-16.09Z"/>
        <path d="M474.78,75.15c0,4.93-.81,9.32-2.43,13.17-1.62,3.86-3.86,7.12-6.7,9.78-2.84,2.67-6.13,4.7-9.87,6.09-3.74,1.39-7.75,2.09-12.04,2.09s-8.29-.67-12-2c-3.71-1.33-6.94-3.31-9.7-5.91-2.75-2.61-4.93-5.82-6.52-9.65-1.6-3.83-2.39-8.26-2.39-13.3s.83-9.3,2.48-13.13c1.65-3.83,3.88-7.06,6.7-9.7s6.1-4.64,9.87-6c3.77-1.36,7.77-2.04,12-2.04s8.29,.68,12,2.04c3.71,1.36,6.94,3.35,9.69,5.96s4.93,5.81,6.52,9.61c1.59,3.8,2.39,8.13,2.39,13Zm-12.87,.35c0-3.42-.48-6.39-1.44-8.91-.96-2.52-2.25-4.64-3.87-6.35-1.63-1.71-3.52-2.99-5.7-3.83-2.17-.84-4.48-1.26-6.91-1.26s-4.75,.42-6.96,1.26c-2.2,.84-4.12,2.1-5.74,3.78-1.62,1.68-2.91,3.78-3.87,6.3-.96,2.52-1.44,5.46-1.44,8.83s.48,6.32,1.44,8.87c.96,2.55,2.25,4.68,3.87,6.39,1.62,1.71,3.54,2.99,5.74,3.83,2.2,.84,4.52,1.26,6.96,1.26s4.74-.42,6.91-1.26,4.07-2.1,5.7-3.78c1.62-1.68,2.91-3.78,3.87-6.3,.96-2.52,1.44-5.46,1.44-8.83Z"/>
        <path d="M526.96,95.07v10.35h-42.78V45.41h12.35v49.65h30.44Z"/>
      </g>
    </g>
  </g>
</svg>